<?xml version="1.0" standalone="no"?><!DOCTYPE svg PUBLIC "-//W3C//DTD SVG 1.1//EN" "http://www.w3.org/Graphics/SVG/1.1/DTD/svg11.dtd"><svg t="1578279539618" class="icon" viewBox="0 0 1196 1024" version="1.1" xmlns="http://www.w3.org/2000/svg" p-id="7792" xmlns:xlink="http://www.w3.org/1999/xlink" width="233.59375" height="200"><defs><style type="text/css"></style></defs><path d="M883.59543 521.966991a36.401185 36.401185 0 1 0 0-72.585696h-90.352942l100.319933-117.003809A36.184511 36.184511 0 0 0 888.362251 281.675836a37.484554 37.484554 0 0 0-52.218366 4.333474l-118.303851 136.28777-117.870504-136.28777a37.484554 37.484554 0 0 0-52.218366-4.333474 36.184511 36.184511 0 0 0-2.816759 51.134998l100.319933 117.003808h-94.686416a36.401185 36.401185 0 1 0 0 72.585697h130.004232v55.251798h-131.737622a36.184511 36.184511 0 1 0 0 72.369023h130.004232v98.586542a36.834532 36.834532 0 0 0 73.669065 0V650.02116h130.004232a36.401185 36.401185 0 1 0 0-72.585697h-130.004232v-55.468472z m0 0" p-id="7793"></path><path d="M1109.369446 0H37.484554A37.26788 37.26788 0 0 0 5.200169 19.067287a37.484554 37.484554 0 0 0 0 37.917901L92.086331 195.006348l-86.669488 138.454507a38.567922 38.567922 0 0 0 0 39.217943l86.669488 138.454507L5.85019 650.02116a38.567922 38.567922 0 0 0 0 39.217943l86.669488 138.454507-86.669488 138.454507a38.134575 38.134575 0 0 0 34.017774 56.551841H1109.369446a84.502751 84.502751 0 0 0 84.286077-84.286077V84.286077A84.502751 84.502751 0 0 0 1109.369446 0z m17.333897 944.047397a9.966991 9.966991 0 0 1-9.966991 9.966991h-782.192129v-37.9179a37.701227 37.701227 0 0 0-75.18578 0V953.364367H97.936521l63.918748-103.570038a37.917901 37.917901 0 0 0 0-40.084638L74.53576 671.688532l86.669488-140.187897a37.917901 37.917901 0 0 0 0-40.084638l-86.669488-140.187897 86.669488-138.02116A37.917901 37.917901 0 0 0 161.855269 173.338976L97.936521 69.33559H260.008464V108.33686a37.701227 37.701227 0 0 0 75.185781 0V68.685569H1115.869657a9.966991 9.966991 0 0 1 9.966991 9.966991z m-6.716885-5.416843" p-id="7794"></path><path d="M341.261109 587.402455a34.017774 34.017774 0 0 0-34.017774 36.834532v157.521794a34.126111 34.126111 0 0 0 68.252221 0v-157.521794a34.017774 34.017774 0 0 0-34.017774-36.834532z m0-314.610242a34.017774 34.017774 0 0 0-34.017774 36.401185v157.521795a34.126111 34.126111 0 0 0 68.252221 0v-157.521795a34.017774 34.017774 0 0 0-34.017774-36.401185z m0 0" p-id="7795"></path></svg>