<?xml version="1.0" standalone="no"?><!DOCTYPE svg PUBLIC "-//W3C//DTD SVG 1.1//EN" "http://www.w3.org/Graphics/SVG/1.1/DTD/svg11.dtd"><svg t="1535978841075" class="icon" style="" viewBox="0 0 1024 1024" version="1.1" xmlns="http://www.w3.org/2000/svg" p-id="8353" xmlns:xlink="http://www.w3.org/1999/xlink" width="64" height="64"><defs><style type="text/css"></style></defs><path d="M853.333333 910.222222c31.288889 0 56.888889-25.6 56.888889-56.888889V170.666667c0-31.288889-25.6-56.888889-56.888889-56.888889H170.666667c-31.288889 0-56.888889 25.6-56.888889 56.888889v682.666666c0 31.288889 25.6 56.888889 56.888889 56.888889h682.666666m0 56.888889H170.666667c-62.577778 0-113.777778-51.2-113.777778-113.777778V170.666667c0-62.577778 51.2-113.777778 113.777778-113.777778h682.666666c62.577778 0 113.777778 51.2 113.777778 113.777778v682.666666c0 62.577778-51.2 113.777778-113.777778 113.777778z" fill="#e6e6e6" p-id="8354"></path><path d="M170.666667 56.888889h682.666666c62.577778 0 113.777778 51.2 113.777778 113.777778v88.177777H56.888889V170.666667c0-62.577778 51.2-113.777778 113.777778-113.777778zM264.533333 435.2h88.177778c31.288889 0 56.888889 25.6 56.888889 56.888889v62.577778c0 31.288889-25.6 56.888889-56.888889 56.888889H264.533333c-31.288889 0-56.888889-25.6-56.888889-56.888889v-62.577778c0-31.288889 25.6-56.888889 56.888889-56.888889z" fill="#e6e6e6" p-id="8355"></path><path d="M512 492.088889c-17.066667 0-28.444444-11.377778-28.444444-28.444445s11.377778-28.444444 28.444444-28.444444h253.155556c17.066667 0 28.444444 11.377778 28.444444 28.444444s-11.377778 28.444444-28.444444 28.444445H512M512 620.088889c-17.066667 0-28.444444-11.377778-28.444444-28.444445s11.377778-28.444444 28.444444-28.444444h253.155556c17.066667 0 28.444444 11.377778 28.444444 28.444444s-11.377778 28.444444-28.444444 28.444445H512M233.244444 773.688889c-17.066667 0-28.444444-11.377778-28.444444-28.444445s11.377778-28.444444 28.444444-28.444444h531.911112c17.066667 0 28.444444 11.377778 28.444444 28.444444s-11.377778 28.444444-28.444444 28.444445H233.244444" fill="#e6e6e6" p-id="8356"></path></svg>