<?xml version="1.0" standalone="no"?><!DOCTYPE svg PUBLIC "-//W3C//DTD SVG 1.1//EN" "http://www.w3.org/Graphics/SVG/1.1/DTD/svg11.dtd"><svg class="icon" width="200px" height="200.00px" viewBox="0 0 1024 1024" version="1.1" xmlns="http://www.w3.org/2000/svg"><path fill="#8a8a8a" d="M733.76 480a224.256 224.256 0 0 0-128.736-171.84c19.84 46.88 31.36 108.48 34.24 171.84h94.464z m0 64h-94.496c-2.88 63.36-14.4 124.96-34.24 171.84A224.256 224.256 0 0 0 733.728 544zM290.24 544a224.256 224.256 0 0 0 128.736 171.84c-19.84-46.88-31.36-108.48-34.24-171.84H290.24z m0-64h94.496c2.88-63.36 14.4-124.96 34.24-171.84A224.256 224.256 0 0 0 290.272 480z m284.992 0c-5.984-125.056-46.08-192-63.232-192s-57.28 66.944-63.232 192h126.464z m0 64h-126.464c5.984 125.056 46.08 192 63.232 192s57.28-66.944 63.232-192zM512 800a288 288 0 1 1 0-576 288 288 0 0 1 0 576z" /></svg>