<?xml version="1.0" standalone="no"?><!DOCTYPE svg PUBLIC "-//W3C//DTD SVG 1.1//EN" "http://www.w3.org/Graphics/SVG/1.1/DTD/svg11.dtd"><svg t="1535962456079" class="icon" style="" viewBox="0 0 1109 1024" version="1.1" xmlns="http://www.w3.org/2000/svg" p-id="2002" xmlns:xlink="http://www.w3.org/1999/xlink" width="69.3125" height="64"><defs><style type="text/css"></style></defs><path d="M1089.066667 406.570667c-5.973333-30.848-24.618667-50.816-47.488-50.176h-4.864c-78.506667 0-142.506667-63.232-142.506667-140.757334 0-25.6 12.373333-53.632 12.373333-53.845333a62.976 62.976 0 0 0-21.802666-76.928l-1.28-0.853333L746.453333 8.874667l-1.578666-0.682667a66.517333 66.517333 0 0 0-26.368-5.205333c-19.584 0-38.698667 7.594667-51.2 20.650666-16.512 16.725333-69.290667 61.013333-111.957334 61.013334-42.88 0-96.085333-45.184-112.810666-62.549334C430.08 9.088 410.709333 1.28 390.954667 1.28c-9.258667 0-18.048 1.749333-25.984 4.992l-1.536 0.682667L221.866667 83.797333l-1.28 0.853334a63.061333 63.061333 0 0 0-21.76 76.885333c0.170667 0.256 12.288 28.245333 12.288 53.888 0 77.568-64 140.757333-142.506667 140.757333h-4.821333C40.874667 355.754667 22.186667 375.466667 16.213333 406.528c-0.426667 2.432-11.434667 60.416-11.434666 106.026667 0 45.653333 10.965333 103.637333 11.434666 106.026666 5.930667 30.634667 24.192 50.346667 46.592 50.346667h5.717334c78.506667 0 142.506667 63.232 142.506666 140.8 0 25.6-12.330667 53.632-12.330666 53.845333a63.274667 63.274667 0 0 0 21.546666 76.928l1.322667 0.853334 134.357333 74.24 1.28 0.682666c8.192 3.498667 16.981333 5.205333 26.453334 5.205334 19.754667 0 38.869333-8.021333 51.413333-21.504 15.829333-16.938667 70.613333-65.152 114.56-65.152 44.202667 0 98.304 48 115.2 66.474666 12.544 13.653333 31.914667 21.717333 51.925333 21.717334 9.216 0 18.048-1.706667 25.941334-5.205334l1.536-0.64 139.178666-76.032 1.322667-0.853333c24.661333-16.981333 33.877333-49.962667 21.76-76.928-0.213333-0.213333-12.288-28.245333-12.288-53.845333 0-77.568 64-140.8 142.506667-140.8h4.821333c22.869333 0.426667 41.557333-19.285333 47.488-50.346667 0.426667-2.389333 11.434667-60.416 11.434667-106.026667 0-45.397333-11.008-103.168-11.434667-105.813333z m-538.965334 370.474666c-148.053333 0-268.373333-118.869333-268.373333-265.130666 0-146.261333 120.32-265.130667 268.373333-265.130667s268.416 118.869333 268.416 265.130667c0 146.261333-120.32 265.130667-268.373333 265.130666z" fill="#e6e6e6" p-id="2003"></path><path d="M550.101333 388.309333c-69.034667 0-125.098667 55.424-125.098666 123.605334 0 68.181333 56.064 123.605333 125.098666 123.605333 69.077333 0 125.141333-55.424 125.141334-123.605333 0.213333-68.181333-56.064-123.605333-125.141334-123.605334z" fill="#e6e6e6" p-id="2004"></path></svg>