<?xml version="1.0" standalone="no"?><!DOCTYPE svg PUBLIC "-//W3C//DTD SVG 1.1//EN" "http://www.w3.org/Graphics/SVG/1.1/DTD/svg11.dtd"><svg t="1535894294638" class="icon" style="" viewBox="0 0 1123 1024" version="1.1" xmlns="http://www.w3.org/2000/svg" p-id="15945" xmlns:xlink="http://www.w3.org/1999/xlink" width="70.1875" height="64"><defs><style type="text/css"></style></defs><path d="M1112.262194 782.798452c-13.212903-95.793548-201.496774-142.03871-257.651613-188.283871-6.606452-6.606452-9.909677-23.122581-9.909678-26.425807 0-23.122581 6.606452-33.032258 6.606452-33.032258s102.4-62.76129 99.096774-224.619355C947.100903 241.069419 904.158968 118.850065 772.029935 118.850065H765.423484c-29.729032 0-52.851613 6.606452-72.670968 13.212903 29.729032 95.793548 62.76129 267.56129-79.277419 383.174193-56.154839 82.580645 128.825806 132.129032 102.4 118.916129 168.464516 75.974194 214.709677 132.129032 224.619355 194.890323 9.909677 49.548387 16.516129 79.277419 16.516129 79.277419s125.522581-19.819355 158.554838-42.941935c0-26.425806 3.303226-56.154839-3.303225-82.580645" fill="#ffffff" p-id="15946"></path><path d="M564.851613 597.091097c-6.606452-6.606452-13.212903-26.425806-13.212903-33.032258 0-29.729032 6.606452-39.63871 6.606451-39.63871s125.522581-66.064516 122.219355-280.774194C677.16129 157.762065 624.309677 5.813677 465.754839 5.813677h-9.909678C287.380645 5.813677 241.135484 157.762065 237.832258 243.645935c-3.303226 201.496774 122.219355 280.774194 122.219355 280.774194s16.516129 16.516129 16.516129 46.245161c0 6.606452-13.212903 19.819355-19.819355 26.425807-69.367742 56.154839-317.109677 112.309677-333.625806 231.225806-13.212903 49.548387-85.883871 132.129032 158.554838 161.858065 69.367742 9.909677 158.554839 13.212903 284.07742 13.212903 571.458065 0 452.541935-109.006452 436.025806-175.070968-16.516129-115.612903-267.56129-175.070968-336.929032-231.225806" fill="#ffffff" p-id="15947"></path></svg>