<?xml version="1.0" standalone="no"?><!DOCTYPE svg PUBLIC "-//W3C//DTD SVG 1.1//EN" "http://www.w3.org/Graphics/SVG/1.1/DTD/svg11.dtd"><svg t="1578279260665" class="icon" viewBox="0 0 1024 1024" version="1.1" xmlns="http://www.w3.org/2000/svg" p-id="3763" xmlns:xlink="http://www.w3.org/1999/xlink" width="200" height="200"><defs><style type="text/css"></style></defs><path d="M952.32 0H212.48c-20.48 0-38.4 17.92-38.4 38.4v107.52H61.44c-20.48 0-38.4 17.92-38.4 38.4v801.28c0 20.48 17.92 38.4 38.4 38.4h739.84c20.48 0 38.4-17.92 38.4-38.4V870.4h112.64c20.48 0 38.4-17.92 38.4-38.4v-793.6C988.16 17.92 972.8 0 952.32 0zM102.4 232.96h655.36v711.68H102.4V232.96z m808.96 563.2h-71.68V189.44c0-20.48-15.36-38.4-35.84-38.4H256V79.36h655.36v716.8z m-243.2-445.44H217.6c-20.48 0-38.4 17.92-38.4 40.96 0 23.04 17.92 40.96 38.4 40.96h450.56c20.48 0 38.4-17.92 38.4-40.96 0-23.04-15.36-40.96-38.4-40.96z m0 189.44H217.6c-20.48 0-38.4 17.92-38.4 40.96 0 23.04 17.92 40.96 38.4 40.96h450.56c20.48 0 38.4-17.92 38.4-40.96 0-23.04-15.36-40.96-38.4-40.96z m0 186.88H217.6c-20.48 0-38.4 17.92-38.4 40.96s17.92 40.96 38.4 40.96h450.56c20.48 0 38.4-17.92 38.4-40.96s-15.36-40.96-38.4-40.96z" fill="#000000" p-id="3764"></path></svg>